<?xml version="1.0" standalone="no"?>
<!DOCTYPE svg PUBLIC "-//W3C//DTD SVG 1.1//EN" "http://www.w3.org/Graphics/SVG/1.1/DTD/svg11.dtd">
<svg width="431" height="542.09858177226772" version="1.1" xmlns="http://www.w3.org/2000/svg">
  <title>20 by 20 sigma maze</title>
  <desc>20 by 20 sigma maze generated by The Maze Generator Website (http://www.mazegenerator.net/).</desc>
  <g fill="none" stroke="#000000" stroke-width="2" stroke-linecap="round" stroke-linejoin="round">
    <polyline points="9,41.3730669589464 2,28.248711305964264 9,15.124355652982123 23,15.124355652982123 30,1.9999999999999822 44,1.9999999999999822 51,15.124355652982123 65,15.124355652982123 72,28.248711305964264" />
    <polyline points="65,15.124355652982123 72,1.9999999999999822 86,1.9999999999999822 93,15.124355652982123 86,28.248711305964264" />
    <polyline points="93,15.124355652982123 107,15.124355652982123 114,1.9999999999999822 128,1.9999999999999822 135,15.124355652982123 128,28.248711305964264" />
    <polyline points="135,15.124355652982123 149,15.124355652982123 156,1.9999999999999822 170,1.9999999999999822 177,15.124355652982123 170,28.248711305964264" />
    <polyline points="177,15.124355652982123 191,15.124355652982123 198,1.9999999999999822" />
    <polyline points="212,1.9999999999999822 219,15.124355652982123 233,15.124355652982123 240,28.248711305964264" />
    <polyline points="233,15.124355652982123 240,1.9999999999999822 254,1.9999999999999822 261,15.124355652982123 275,15.124355652982123 282,1.9999999999999822 296,1.9999999999999822 303,15.124355652982123 296,28.248711305964264" />
    <polyline points="303,15.124355652982123 317,15.124355652982123 324,1.9999999999999822 338,1.9999999999999822 345,15.124355652982123 338,28.248711305964264" />
    <polyline points="345,15.124355652982123 359,15.124355652982123 366,1.9999999999999822 380,1.9999999999999822 387,15.124355652982123 401,15.124355652982123 408,1.9999999999999822 422,1.9999999999999822 429,15.124355652982123 422,28.248711305964264" />
    <polyline points="9,67.621778264910688 2,54.497422611928542 9,41.3730669589464 23,41.3730669589464 30,28.248711305964264 44,28.248711305964264 51,41.3730669589464 65,41.3730669589464 72,54.497422611928542" />
    <line x1="86" y1="28.248711305964264" x2="93" y2="41.3730669589464" />
    <polyline points="114,54.497422611928542 107,41.3730669589464 114,28.248711305964264 128,28.248711305964264" />
    <polyline points="135,41.3730669589464 149,41.3730669589464 156,54.497422611928542" />
    <line x1="149" y1="41.3730669589464" x2="156" y2="28.248711305964264" />
    <polyline points="170,28.248711305964264 177,41.3730669589464 170,54.497422611928542" />
    <line x1="177" y1="41.3730669589464" x2="191" y2="41.3730669589464" />
    <polyline points="198,28.248711305964264 212,28.248711305964264 219,41.3730669589464 212,54.497422611928542" />
    <polyline points="219,41.3730669589464 233,41.3730669589464 240,54.497422611928542" />
    <polyline points="254,28.248711305964264 261,41.3730669589464 254,54.497422611928542" />
    <line x1="261" y1="41.3730669589464" x2="275" y2="41.3730669589464" />
    <polyline points="282,28.248711305964264 296,28.248711305964264 303,41.3730669589464 296,54.497422611928542" />
    <line x1="317" y1="41.3730669589464" x2="324" y2="54.497422611928542" />
    <line x1="324" y1="28.248711305964264" x2="338" y2="28.248711305964264" />
    <polyline points="338,54.497422611928542 345,41.3730669589464 359,41.3730669589464 366,28.248711305964264 380,28.248711305964264" />
    <polyline points="380,54.497422611928542 387,41.3730669589464 401,41.3730669589464 408,54.497422611928542" />
    <line x1="401" y1="41.3730669589464" x2="408" y2="28.248711305964264" />
    <polyline points="422,28.248711305964264 429,41.3730669589464 422,54.497422611928542" />
    <polyline points="9,93.870489570874966 2,80.74613391789282 9,67.621778264910674" />
    <polyline points="30,80.74613391789282 23,67.621778264910674 30,54.497422611928535" />
    <polyline points="44,54.497422611928535 51,67.621778264910674 65,67.621778264910674 72,54.497422611928535 86,54.497422611928535" />
    <polyline points="86,80.74613391789282 93,67.621778264910674 107,67.621778264910674 114,54.497422611928535 128,54.497422611928535 135,67.621778264910674 128,80.74613391789282" />
    <line x1="135" y1="67.621778264910674" x2="149" y2="67.621778264910674" />
    <line x1="156" y1="54.497422611928535" x2="170" y2="54.497422611928535" />
    <polyline points="170,80.74613391789282 177,67.621778264910674 191,67.621778264910674 198,54.497422611928535 212,54.497422611928535" />
    <line x1="212" y1="80.74613391789282" x2="219" y2="67.621778264910674" />
    <polyline points="240,80.74613391789282 233,67.621778264910674 240,54.497422611928535 254,54.497422611928535 261,67.621778264910674" />
    <polyline points="282,80.74613391789282 275,67.621778264910674 282,54.497422611928535 296,54.497422611928535" />
    <polyline points="296,80.74613391789282 303,67.621778264910674 317,67.621778264910674 324,54.497422611928535 338,54.497422611928535 345,67.621778264910674 338,80.74613391789282" />
    <polyline points="345,67.621778264910674 359,67.621778264910674 366,80.74613391789282" />
    <line x1="366" y1="54.497422611928535" x2="380" y2="54.497422611928535" />
    <polyline points="380,80.74613391789282 387,67.621778264910674 401,67.621778264910674 408,54.497422611928535" />
    <polyline points="422,54.497422611928535 429,67.621778264910674 422,80.74613391789282" />
    <polyline points="9,120.11920087683926 2,106.99484522385711 9,93.870489570874966" />
    <polyline points="30,106.99484522385711 23,93.870489570874966 30,80.74613391789282 44,80.74613391789282 51,93.870489570874966 65,93.870489570874966 72,106.99484522385711" />
    <polyline points="65,93.870489570874966 72,80.74613391789282 86,80.74613391789282" />
    <polyline points="86,106.99484522385711 93,93.870489570874966 107,93.870489570874966 114,80.74613391789282" />
    <polyline points="128,106.99484522385711 135,93.870489570874966 149,93.870489570874966 156,80.74613391789282 170,80.74613391789282 177,93.870489570874966 170,106.99484522385711" />
    <polyline points="177,93.870489570874966 191,93.870489570874966 198,80.74613391789282 212,80.74613391789282 219,93.870489570874966 212,106.99484522385711" />
    <polyline points="240,106.99484522385711 233,93.870489570874966 240,80.74613391789282" />
    <polyline points="254,80.74613391789282 261,93.870489570874966 275,93.870489570874966 282,106.99484522385711" />
    <line x1="275" y1="93.870489570874966" x2="282" y2="80.74613391789282" />
    <polyline points="296,80.74613391789282 303,93.870489570874966 296,106.99484522385711" />
    <polyline points="324,106.99484522385711 317,93.870489570874966 324,80.74613391789282" />
    <polyline points="338,106.99484522385711 345,93.870489570874966 359,93.870489570874966 366,80.74613391789282 380,80.74613391789282 387,93.870489570874966 401,93.870489570874966 408,106.99484522385711" />
    <polyline points="408,80.74613391789282 422,80.74613391789282 429,93.870489570874966 422,106.99484522385711" />
    <polyline points="9,146.36791218280351 2,133.24355652982138 9,120.11920087683923" />
    <line x1="23" y1="120.11920087683923" x2="30" y2="106.99484522385708" />
    <polyline points="44,106.99484522385708 51,120.11920087683923 44,133.24355652982138" />
    <polyline points="51,120.11920087683923 65,120.11920087683923 72,133.24355652982138" />
    <polyline points="86,106.99484522385708 93,120.11920087683923 86,133.24355652982138" />
    <polyline points="93,120.11920087683923 107,120.11920087683923 114,106.99484522385708 128,106.99484522385708 135,120.11920087683923 128,133.24355652982138" />
    <polyline points="156,133.24355652982138 149,120.11920087683923 156,106.99484522385708" />
    <line x1="170" y1="133.24355652982138" x2="177" y2="120.11920087683923" />
    <polyline points="198,133.24355652982138 191,120.11920087683923 198,106.99484522385708" />
    <line x1="212" y1="133.24355652982138" x2="219" y2="120.11920087683923" />
    <line x1="233" y1="120.11920087683923" x2="240" y2="133.24355652982138" />
    <polyline points="240,106.99484522385708 254,106.99484522385708 261,120.11920087683923 254,133.24355652982138" />
    <polyline points="261,120.11920087683923 275,120.11920087683923 282,133.24355652982138" />
    <polyline points="296,106.99484522385708 303,120.11920087683923 296,133.24355652982138" />
    <polyline points="324,133.24355652982138 317,120.11920087683923 324,106.99484522385708 338,106.99484522385708" />
    <polyline points="338,133.24355652982138 345,120.11920087683923 359,120.11920087683923 366,106.99484522385708 380,106.99484522385708 387,120.11920087683923 380,133.24355652982138" />
    <polyline points="408,133.24355652982138 401,120.11920087683923 408,106.99484522385708" />
    <polyline points="422,106.99484522385708 429,120.11920087683923 422,133.24355652982138" />
    <polyline points="9,172.6166234887678 2,159.49226783578567 9,146.36791218280354 23,146.36791218280354 30,133.2435565298214 44,133.2435565298214 51,146.36791218280354" />
    <line x1="65" y1="146.36791218280354" x2="72" y2="159.49226783578567" />
    <line x1="72" y1="133.2435565298214" x2="86" y2="133.2435565298214" />
    <polyline points="86,159.49226783578567 93,146.36791218280354 107,146.36791218280354 114,159.49226783578567" />
    <line x1="107" y1="146.36791218280354" x2="114" y2="133.2435565298214" />
    <polyline points="128,159.49226783578567 135,146.36791218280354 149,146.36791218280354 156,159.49226783578567" />
    <polyline points="149,146.36791218280354 156,133.2435565298214 170,133.2435565298214 177,146.36791218280354 170,159.49226783578567" />
    <polyline points="198,159.49226783578567 191,146.36791218280354 198,133.2435565298214 212,133.2435565298214 219,146.36791218280354" />
    <polyline points="240,159.49226783578567 233,146.36791218280354 240,133.2435565298214" />
    <polyline points="254,159.49226783578567 261,146.36791218280354 275,146.36791218280354 282,133.2435565298214" />
    <polyline points="296,159.49226783578567 303,146.36791218280354 317,146.36791218280354 324,133.2435565298214" />
    <polyline points="338,133.2435565298214 345,146.36791218280354 338,159.49226783578567" />
    <polyline points="366,159.49226783578567 359,146.36791218280354 366,133.2435565298214 380,133.2435565298214 387,146.36791218280354" />
    <polyline points="408,159.49226783578567 401,146.36791218280354 408,133.2435565298214" />
    <polyline points="422,133.2435565298214 429,146.36791218280354 422,159.49226783578567" />
    <polyline points="9,198.86533479473209 2,185.74097914174996 9,172.61662348876783" />
    <polyline points="30,185.74097914174996 23,172.61662348876783 30,159.4922678357857 44,159.4922678357857 51,172.61662348876783 65,172.61662348876783 72,185.74097914174996" />
    <polyline points="65,172.61662348876783 72,159.4922678357857 86,159.4922678357857" />
    <line x1="86" y1="185.74097914174996" x2="93" y2="172.61662348876783" />
    <polyline points="107,172.61662348876783 114,159.4922678357857 128,159.4922678357857" />
    <line x1="128" y1="185.74097914174996" x2="135" y2="172.61662348876783" />
    <polyline points="156,185.74097914174996 149,172.61662348876783 156,159.4922678357857" />
    <polyline points="170,159.4922678357857 177,172.61662348876783 191,172.61662348876783 198,185.74097914174996" />
    <polyline points="198,159.4922678357857 212,159.4922678357857 219,172.61662348876783 233,172.61662348876783 240,185.74097914174996" />
    <polyline points="233,172.61662348876783 240,159.4922678357857 254,159.4922678357857" />
    <polyline points="254,185.74097914174996 261,172.61662348876783 275,172.61662348876783 282,159.4922678357857 296,159.4922678357857" />
    <polyline points="296,185.74097914174996 303,172.61662348876783 317,172.61662348876783 324,185.74097914174996" />
    <polyline points="317,172.61662348876783 324,159.4922678357857 338,159.4922678357857 345,172.61662348876783 359,172.61662348876783" />
    <polyline points="380,159.4922678357857 387,172.61662348876783 380,185.74097914174996" />
    <polyline points="387,172.61662348876783 401,172.61662348876783 408,185.74097914174996" />
    <line x1="401" y1="172.61662348876783" x2="408" y2="159.4922678357857" />
    <polyline points="422,159.4922678357857 429,172.61662348876783 422,185.74097914174996" />
    <polyline points="9,225.11404610069636 2,211.98969044771422 9,198.86533479473209" />
    <line x1="23" y1="198.86533479473209" x2="30" y2="185.74097914174996" />
    <polyline points="44,185.74097914174996 51,198.86533479473209 44,211.98969044771422" />
    <polyline points="72,211.98969044771422 65,198.86533479473209 72,185.74097914174996 86,185.74097914174996" />
    <polyline points="86,211.98969044771422 93,198.86533479473209 107,198.86533479473209 114,211.98969044771422" />
    <polyline points="107,198.86533479473209 114,185.74097914174996 128,185.74097914174996" />
    <polyline points="128,211.98969044771422 135,198.86533479473209 149,198.86533479473209 156,211.98969044771422" />
    <polyline points="149,198.86533479473209 156,185.74097914174996 170,185.74097914174996" />
    <polyline points="170,211.98969044771422 177,198.86533479473209 191,198.86533479473209 198,211.98969044771422" />
    <polyline points="191,198.86533479473209 198,185.74097914174996 212,185.74097914174996" />
    <line x1="212" y1="211.98969044771422" x2="219" y2="198.86533479473209" />
    <polyline points="240,211.98969044771422 233,198.86533479473209 240,185.74097914174996" />
    <polyline points="254,185.74097914174996 261,198.86533479473209 254,211.98969044771422" />
    <polyline points="261,198.86533479473209 275,198.86533479473209 282,211.98969044771422" />
    <polyline points="282,185.74097914174996 296,185.74097914174996 303,198.86533479473209 296,211.98969044771422" />
    <polyline points="324,211.98969044771422 317,198.86533479473209 324,185.74097914174996" />
    <polyline points="338,185.74097914174996 345,198.86533479473209 359,198.86533479473209 366,185.74097914174996 380,185.74097914174996" />
    <polyline points="380,211.98969044771422 387,198.86533479473209 401,198.86533479473209 408,211.98969044771422" />
    <polyline points="422,185.74097914174996 429,198.86533479473209 422,211.98969044771422" />
    <polyline points="9,251.36275740666065 2,238.23840175367852 9,225.11404610069639 23,225.11404610069639 30,238.23840175367852" />
    <polyline points="23,225.11404610069639 30,211.98969044771425 44,211.98969044771425" />
    <polyline points="51,225.11404610069639 65,225.11404610069639 72,238.23840175367852" />
    <line x1="65" y1="225.11404610069639" x2="72" y2="211.98969044771425" />
    <line x1="86" y1="211.98969044771425" x2="93" y2="225.11404610069639" />
    <line x1="107" y1="225.11404610069639" x2="114" y2="238.23840175367852" />
    <polyline points="114,211.98969044771425 128,211.98969044771425 135,225.11404610069639 128,238.23840175367852" />
    <line x1="149" y1="225.11404610069639" x2="156" y2="238.23840175367852" />
    <polyline points="177,225.11404610069639 191,225.11404610069639 198,238.23840175367852" />
    <polyline points="198,211.98969044771425 212,211.98969044771425 219,225.11404610069639 212,238.23840175367852" />
    <polyline points="240,238.23840175367852 233,225.11404610069639 240,211.98969044771425" />
    <polyline points="254,238.23840175367852 261,225.11404610069639 275,225.11404610069639 282,211.98969044771425" />
    <polyline points="296,211.98969044771425 303,225.11404610069639 296,238.23840175367852" />
    <polyline points="317,225.11404610069639 324,211.98969044771425 338,211.98969044771425 345,225.11404610069639 338,238.23840175367852" />
    <polyline points="345,225.11404610069639 359,225.11404610069639 366,238.23840175367852" />
    <polyline points="359,225.11404610069639 366,211.98969044771425 380,211.98969044771425" />
    <polyline points="380,238.23840175367852 387,225.11404610069639 401,225.11404610069639" />
    <polyline points="408,211.98969044771425 422,211.98969044771425 429,225.11404610069639 422,238.23840175367852" />
    <polyline points="9,277.61146871262497 2,264.48711305964281 9,251.36275740666068" />
    <line x1="23" y1="251.36275740666068" x2="30" y2="264.48711305964281" />
    <polyline points="30,238.23840175367855 44,238.23840175367855 51,251.36275740666068 65,251.36275740666068" />
    <polyline points="86,238.23840175367855 93,251.36275740666068 86,264.48711305964281" />
    <polyline points="93,251.36275740666068 107,251.36275740666068 114,264.48711305964281" />
    <line x1="107" y1="251.36275740666068" x2="114" y2="238.23840175367855" />
    <polyline points="128,264.48711305964281 135,251.36275740666068 149,251.36275740666068 156,264.48711305964281" />
    <line x1="149" y1="251.36275740666068" x2="156" y2="238.23840175367855" />
    <polyline points="170,238.23840175367855 177,251.36275740666068 170,264.48711305964281" />
    <polyline points="198,264.48711305964281 191,251.36275740666068 198,238.23840175367855" />
    <polyline points="212,238.23840175367855 219,251.36275740666068 212,264.48711305964281" />
    <polyline points="219,251.36275740666068 233,251.36275740666068 240,238.23840175367855 254,238.23840175367855" />
    <polyline points="261,251.36275740666068 275,251.36275740666068 282,264.48711305964281" />
    <line x1="275" y1="251.36275740666068" x2="282" y2="238.23840175367855" />
    <polyline points="303,251.36275740666068 317,251.36275740666068 324,264.48711305964281" />
    <polyline points="317,251.36275740666068 324,238.23840175367855 338,238.23840175367855" />
    <polyline points="338,264.48711305964281 345,251.36275740666068 359,251.36275740666068 366,264.48711305964281" />
    <line x1="366" y1="238.23840175367855" x2="380" y2="238.23840175367855" />
    <polyline points="380,264.48711305964281 387,251.36275740666068 401,251.36275740666068 408,264.48711305964281" />
    <line x1="401" y1="251.36275740666068" x2="408" y2="238.23840175367855" />
    <polyline points="422,238.23840175367855 429,251.36275740666068 422,264.48711305964281" />
    <polyline points="9,303.86018001858923 2,290.73582436560707 9,277.61146871262491" />
    <polyline points="30,290.73582436560707 23,277.61146871262491 30,264.48711305964275 44,264.48711305964275 51,277.61146871262491 65,277.61146871262491 72,264.48711305964275 86,264.48711305964275" />
    <line x1="86" y1="290.73582436560707" x2="93" y2="277.61146871262491" />
    <polyline points="114,290.73582436560707 107,277.61146871262491 114,264.48711305964275 128,264.48711305964275" />
    <line x1="128" y1="290.73582436560707" x2="135" y2="277.61146871262491" />
    <polyline points="156,290.73582436560707 149,277.61146871262491 156,264.48711305964275" />
    <polyline points="170,264.48711305964275 177,277.61146871262491 170,290.73582436560707" />
    <polyline points="198,290.73582436560707 191,277.61146871262491 198,264.48711305964275" />
    <line x1="212" y1="290.73582436560707" x2="219" y2="277.61146871262491" />
    <polyline points="240,290.73582436560707 233,277.61146871262491 240,264.48711305964275 254,264.48711305964275" />
    <polyline points="261,277.61146871262491 275,277.61146871262491 282,264.48711305964275 296,264.48711305964275 303,277.61146871262491 317,277.61146871262491 324,290.73582436560707" />
    <line x1="317" y1="277.61146871262491" x2="324" y2="264.48711305964275" />
    <polyline points="338,264.48711305964275 345,277.61146871262491 338,290.73582436560707" />
    <polyline points="366,290.73582436560707 359,277.61146871262491 366,264.48711305964275" />
    <polyline points="380,290.73582436560707 387,277.61146871262491 401,277.61146871262491 408,290.73582436560707" />
    <polyline points="408,264.48711305964275 422,264.48711305964275 429,277.61146871262491 422,290.73582436560707" />
    <polyline points="9,330.1088913245535 2,316.98453567157134 9,303.86018001858918 23,303.86018001858918 30,316.98453567157134" />
    <line x1="23" y1="303.86018001858918" x2="30" y2="290.735824365607" />
    <polyline points="44,290.735824365607 51,303.86018001858918 65,303.86018001858918 72,316.98453567157134" />
    <line x1="65" y1="303.86018001858918" x2="72" y2="290.735824365607" />
    <polyline points="86,290.735824365607 93,303.86018001858918 86,316.98453567157134" />
    <polyline points="93,303.86018001858918 107,303.86018001858918 114,316.98453567157134" />
    <polyline points="128,290.735824365607 135,303.86018001858918 128,316.98453567157134" />
    <polyline points="135,303.86018001858918 149,303.86018001858918 156,316.98453567157134" />
    <polyline points="156,290.735824365607 170,290.735824365607 177,303.86018001858918 170,316.98453567157134" />
    <line x1="191" y1="303.86018001858918" x2="198" y2="316.98453567157134" />
    <polyline points="198,290.735824365607 212,290.735824365607 219,303.86018001858918 212,316.98453567157134" />
    <polyline points="240,316.98453567157134 233,303.86018001858918 240,290.735824365607 254,290.735824365607 261,303.86018001858918 275,303.86018001858918 282,290.735824365607 296,290.735824365607 303,303.86018001858918 317,303.86018001858918 324,316.98453567157134" />
    <polyline points="338,290.735824365607 345,303.86018001858918 338,316.98453567157134" />
    <polyline points="366,316.98453567157134 359,303.86018001858918 366,290.735824365607" />
    <polyline points="380,290.735824365607 387,303.86018001858918 380,316.98453567157134" />
    <polyline points="408,316.98453567157134 401,303.86018001858918 408,290.735824365607" />
    <polyline points="422,290.735824365607 429,303.86018001858918 422,316.98453567157134" />
    <polyline points="9,356.35760263051782 2,343.23324697753566 9,330.1088913245535" />
    <line x1="23" y1="330.1088913245535" x2="30" y2="343.23324697753566" />
    <line x1="30" y1="316.98453567157134" x2="44" y2="316.98453567157134" />
    <line x1="44" y1="343.23324697753566" x2="51" y2="330.1088913245535" />
    <polyline points="72,343.23324697753566 65,330.1088913245535 72,316.98453567157134" />
    <line x1="86" y1="343.23324697753566" x2="93" y2="330.1088913245535" />
    <polyline points="107,330.1088913245535 114,316.98453567157134 128,316.98453567157134 135,330.1088913245535 128,343.23324697753566" />
    <polyline points="156,343.23324697753566 149,330.1088913245535 156,316.98453567157134" />
    <polyline points="170,316.98453567157134 177,330.1088913245535 191,330.1088913245535 198,316.98453567157134" />
    <polyline points="212,316.98453567157134 219,330.1088913245535 212,343.23324697753566" />
    <polyline points="233,330.1088913245535 240,316.98453567157134 254,316.98453567157134 261,330.1088913245535 254,343.23324697753566" />
    <polyline points="261,330.1088913245535 275,330.1088913245535 282,316.98453567157134 296,316.98453567157134" />
    <polyline points="296,343.23324697753566 303,330.1088913245535 317,330.1088913245535 324,316.98453567157134 338,316.98453567157134" />
    <polyline points="338,343.23324697753566 345,330.1088913245535 359,330.1088913245535 366,316.98453567157134" />
    <polyline points="380,316.98453567157134 387,330.1088913245535 380,343.23324697753566" />
    <polyline points="408,343.23324697753566 401,330.1088913245535 408,316.98453567157134" />
    <polyline points="422,316.98453567157134 429,330.1088913245535 422,343.23324697753566" />
    <polyline points="9,382.60631393648208 2,369.48195828349992 9,356.35760263051776 23,356.35760263051776 30,369.48195828349992" />
    <polyline points="30,343.2332469775356 44,343.2332469775356 51,356.35760263051776 65,356.35760263051776 72,369.48195828349992" />
    <polyline points="72,343.2332469775356 86,343.2332469775356 93,356.35760263051776 86,369.48195828349992" />
    <polyline points="93,356.35760263051776 107,356.35760263051776 114,343.2332469775356" />
    <polyline points="128,343.2332469775356 135,356.35760263051776 128,369.48195828349992" />
    <polyline points="135,356.35760263051776 149,356.35760263051776 156,369.48195828349992" />
    <polyline points="156,343.2332469775356 170,343.2332469775356 177,356.35760263051776 191,356.35760263051776 198,369.48195828349992" />
    <polyline points="191,356.35760263051776 198,343.2332469775356 212,343.2332469775356 219,356.35760263051776 233,356.35760263051776 240,369.48195828349992" />
    <line x1="233" y1="356.35760263051776" x2="240" y2="343.2332469775356" />
    <polyline points="254,369.48195828349992 261,356.35760263051776 275,356.35760263051776 282,343.2332469775356 296,343.2332469775356" />
    <line x1="296" y1="369.48195828349992" x2="303" y2="356.35760263051776" />
    <polyline points="317,356.35760263051776 324,343.2332469775356 338,343.2332469775356 345,356.35760263051776 338,369.48195828349992" />
    <polyline points="359,356.35760263051776 366,343.2332469775356 380,343.2332469775356 387,356.35760263051776 401,356.35760263051776 408,369.48195828349992" />
    <polyline points="422,343.2332469775356 429,356.35760263051776 422,369.48195828349992" />
    <polyline points="9,408.85502524244635 2,395.73066958946418 9,382.606313936482" />
    <polyline points="30,395.73066958946418 23,382.606313936482 30,369.48195828349986 44,369.48195828349986" />
    <polyline points="44,395.73066958946418 51,382.606313936482 65,382.606313936482 72,395.73066958946418" />
    <line x1="65" y1="382.606313936482" x2="72" y2="369.48195828349986" />
    <polyline points="86,369.48195828349986 93,382.606313936482 107,382.606313936482 114,395.73066958946418" />
    <polyline points="114,369.48195828349986 128,369.48195828349986 135,382.606313936482 149,382.606313936482 156,395.73066958946418" />
    <polyline points="156,369.48195828349986 170,369.48195828349986 177,382.606313936482 170,395.73066958946418" />
    <line x1="177" y1="382.606313936482" x2="191" y2="382.606313936482" />
    <polyline points="212,369.48195828349986 219,382.606313936482 212,395.73066958946418" />
    <polyline points="219,382.606313936482 233,382.606313936482 240,395.73066958946418" />
    <line x1="240" y1="369.48195828349986" x2="254" y2="369.48195828349986" />
    <polyline points="254,395.73066958946418 261,382.606313936482 275,382.606313936482 282,395.73066958946418" />
    <line x1="275" y1="382.606313936482" x2="282" y2="369.48195828349986" />
    <polyline points="296,369.48195828349986 303,382.606313936482 296,395.73066958946418" />
    <polyline points="303,382.606313936482 317,382.606313936482 324,369.48195828349986" />
    <polyline points="338,369.48195828349986 345,382.606313936482 338,395.73066958946418" />
    <line x1="345" y1="382.606313936482" x2="359" y2="382.606313936482" />
    <polyline points="366,369.48195828349986 380,369.48195828349986 387,382.606313936482 380,395.73066958946418" />
    <line x1="387" y1="382.606313936482" x2="401" y2="382.606313936482" />
    <polyline points="408,369.48195828349986 422,369.48195828349986 429,382.606313936482 422,395.73066958946418" />
    <polyline points="9,435.10373654841067 2,421.97938089542851 9,408.85502524244635" />
    <polyline points="30,421.97938089542851 23,408.85502524244635 30,395.73066958946418" />
    <polyline points="51,408.85502524244635 65,408.85502524244635 72,421.97938089542851" />
    <polyline points="65,408.85502524244635 72,395.73066958946418 86,395.73066958946418" />
    <polyline points="93,408.85502524244635 107,408.85502524244635 114,421.97938089542851" />
    <polyline points="107,408.85502524244635 114,395.73066958946418 128,395.73066958946418" />
    <line x1="128" y1="421.97938089542851" x2="135" y2="408.85502524244635" />
    <polyline points="156,421.97938089542851 149,408.85502524244635 156,395.73066958946418" />
    <line x1="170" y1="395.73066958946418" x2="177" y2="408.85502524244635" />
    <line x1="191" y1="408.85502524244635" x2="198" y2="421.97938089542851" />
    <line x1="198" y1="395.73066958946418" x2="212" y2="395.73066958946418" />
    <line x1="212" y1="421.97938089542851" x2="219" y2="408.85502524244635" />
    <polyline points="233,408.85502524244635 240,395.73066958946418 254,395.73066958946418 261,408.85502524244635 254,421.97938089542851" />
    <line x1="275" y1="408.85502524244635" x2="282" y2="421.97938089542851" />
    <line x1="282" y1="395.73066958946418" x2="296" y2="395.73066958946418" />
    <polyline points="296,421.97938089542851 303,408.85502524244635 317,408.85502524244635 324,395.73066958946418 338,395.73066958946418" />
    <polyline points="338,421.97938089542851 345,408.85502524244635 359,408.85502524244635 366,421.97938089542851" />
    <polyline points="359,408.85502524244635 366,395.73066958946418 380,395.73066958946418 387,408.85502524244635 401,408.85502524244635 408,421.97938089542851" />
    <polyline points="408,395.73066958946418 422,395.73066958946418 429,408.85502524244635 422,421.97938089542851" />
    <polyline points="9,461.35244785437493 2,448.22809220139277 9,435.10373654841061 23,435.10373654841061" />
    <polyline points="30,421.97938089542845 44,421.97938089542845 51,435.10373654841061 44,448.22809220139277" />
    <polyline points="72,448.22809220139277 65,435.10373654841061 72,421.97938089542845 86,421.97938089542845" />
    <polyline points="86,448.22809220139277 93,435.10373654841061 107,435.10373654841061 114,448.22809220139277" />
    <polyline points="114,421.97938089542845 128,421.97938089542845 135,435.10373654841061 149,435.10373654841061 156,448.22809220139277" />
    <line x1="156" y1="421.97938089542845" x2="170" y2="421.97938089542845" />
    <polyline points="170,448.22809220139277 177,435.10373654841061 191,435.10373654841061 198,448.22809220139277" />
    <polyline points="191,435.10373654841061 198,421.97938089542845 212,421.97938089542845" />
    <polyline points="212,448.22809220139277 219,435.10373654841061 233,435.10373654841061 240,421.97938089542845 254,421.97938089542845 261,435.10373654841061 254,448.22809220139277" />
    <polyline points="275,435.10373654841061 282,421.97938089542845 296,421.97938089542845 303,435.10373654841061 296,448.22809220139277" />
    <polyline points="303,435.10373654841061 317,435.10373654841061 324,448.22809220139277" />
    <polyline points="324,421.97938089542845 338,421.97938089542845 345,435.10373654841061 338,448.22809220139277" />
    <line x1="359" y1="435.10373654841061" x2="366" y2="448.22809220139277" />
    <polyline points="380,421.97938089542845 387,435.10373654841061 380,448.22809220139277" />
    <polyline points="387,435.10373654841061 401,435.10373654841061 408,448.22809220139277" />
    <polyline points="422,421.97938089542845 429,435.10373654841061 422,448.22809220139277" />
    <polyline points="9,487.60115916033919 2,474.47680350735703 9,461.35244785437487 23,461.35244785437487" />
    <polyline points="30,448.22809220139271 44,448.22809220139271 51,461.35244785437487 44,474.47680350735703" />
    <polyline points="72,474.47680350735703 65,461.35244785437487 72,448.22809220139271" />
    <polyline points="86,474.47680350735703 93,461.35244785437487 107,461.35244785437487 114,474.47680350735703" />
    <polyline points="107,461.35244785437487 114,448.22809220139271 128,448.22809220139271 135,461.35244785437487 149,461.35244785437487 156,474.47680350735703" />
    <polyline points="156,448.22809220139271 170,448.22809220139271 177,461.35244785437487 170,474.47680350735703" />
    <line x1="191" y1="461.35244785437487" x2="198" y2="474.47680350735703" />
    <line x1="198" y1="448.22809220139271" x2="212" y2="448.22809220139271" />
    <polyline points="212,474.47680350735703 219,461.35244785437487 233,461.35244785437487 240,474.47680350735703" />
    <line x1="233" y1="461.35244785437487" x2="240" y2="448.22809220139271" />
    <polyline points="254,448.22809220139271 261,461.35244785437487 275,461.35244785437487 282,448.22809220139271 296,448.22809220139271" />
    <line x1="296" y1="474.47680350735703" x2="303" y2="461.35244785437487" />
    <polyline points="324,474.47680350735703 317,461.35244785437487 324,448.22809220139271" />
    <polyline points="338,448.22809220139271 345,461.35244785437487 359,461.35244785437487 366,474.47680350735703" />
    <line x1="366" y1="448.22809220139271" x2="380" y2="448.22809220139271" />
    <line x1="380" y1="474.47680350735703" x2="387" y2="461.35244785437487" />
    <polyline points="408,474.47680350735703 401,461.35244785437487 408,448.22809220139271 422,448.22809220139271 429,461.35244785437487 422,474.47680350735703" />
    <polyline points="9,513.84987046630351 2,500.72551481332135 9,487.60115916033919" />
    <polyline points="23,487.60115916033919 30,474.47680350735703 44,474.47680350735703 51,487.60115916033919 44,500.72551481332135" />
    <polyline points="65,487.60115916033919 72,474.47680350735703 86,474.47680350735703" />
    <line x1="86" y1="500.72551481332135" x2="93" y2="487.60115916033919" />
    <polyline points="114,500.72551481332135 107,487.60115916033919 114,474.47680350735703" />
    <polyline points="128,474.47680350735703 135,487.60115916033919 128,500.72551481332135" />
    <polyline points="156,500.72551481332135 149,487.60115916033919 156,474.47680350735703" />
    <polyline points="170,474.47680350735703 177,487.60115916033919 170,500.72551481332135" />
    <polyline points="177,487.60115916033919 191,487.60115916033919 198,500.72551481332135" />
    <polyline points="198,474.47680350735703 212,474.47680350735703 219,487.60115916033919 233,487.60115916033919 240,500.72551481332135" />
    <polyline points="240,474.47680350735703 254,474.47680350735703 261,487.60115916033919 254,500.72551481332135" />
    <polyline points="282,500.72551481332135 275,487.60115916033919 282,474.47680350735703" />
    <polyline points="296,474.47680350735703 303,487.60115916033919 296,500.72551481332135" />
    <polyline points="303,487.60115916033919 317,487.60115916033919 324,500.72551481332135" />
    <line x1="324" y1="474.47680350735703" x2="338" y2="474.47680350735703" />
    <polyline points="338,500.72551481332135 345,487.60115916033919 359,487.60115916033919 366,474.47680350735703 380,474.47680350735703 387,487.60115916033919 380,500.72551481332135" />
    <line x1="387" y1="487.60115916033919" x2="401" y2="487.60115916033919" />
    <polyline points="422,474.47680350735703 429,487.60115916033919 422,500.72551481332135" />
    <polyline points="9,540.09858177226772 2,526.97422611928562 9,513.84987046630351 23,513.84987046630351 30,500.72551481332135" />
    <line x1="44" y1="500.72551481332135" x2="51" y2="513.84987046630351" />
    <polyline points="72,526.97422611928562 65,513.84987046630351 72,500.72551481332135 86,500.72551481332135" />
    <polyline points="93,513.84987046630351 107,513.84987046630351 114,500.72551481332135" />
    <polyline points="128,500.72551481332135 135,513.84987046630351 128,526.97422611928562" />
    <polyline points="156,526.97422611928562 149,513.84987046630351 156,500.72551481332135" />
    <line x1="170" y1="500.72551481332135" x2="177" y2="513.84987046630351" />
    <polyline points="198,526.97422611928562 191,513.84987046630351 198,500.72551481332135 212,500.72551481332135" />
    <polyline points="219,513.84987046630351 233,513.84987046630351 240,526.97422611928562" />
    <line x1="233" y1="513.84987046630351" x2="240" y2="500.72551481332135" />
    <line x1="254" y1="500.72551481332135" x2="261" y2="513.84987046630351" />
    <polyline points="282,526.97422611928562 275,513.84987046630351 282,500.72551481332135" />
    <line x1="296" y1="500.72551481332135" x2="303" y2="513.84987046630351" />
    <polyline points="324,526.97422611928562 317,513.84987046630351 324,500.72551481332135 338,500.72551481332135" />
    <polyline points="345,513.84987046630351 359,513.84987046630351 366,526.97422611928562" />
    <line x1="359" y1="513.84987046630351" x2="366" y2="500.72551481332135" />
    <polyline points="387,513.84987046630351 401,513.84987046630351 408,500.72551481332135 422,500.72551481332135 429,513.84987046630351 422,526.97422611928562" />
    <polyline points="30,526.97422611928562 23,540.09858177226772 9,540.09858177226772" />
    <line x1="44" y1="526.97422611928562" x2="30" y2="526.97422611928562" />
    <polyline points="72,526.97422611928562 65,540.09858177226772 51,540.09858177226772 44,526.97422611928562" />
    <line x1="86" y1="526.97422611928562" x2="72" y2="526.97422611928562" />
    <polyline points="114,526.97422611928562 107,540.09858177226772 93,540.09858177226772 86,526.97422611928562" />
    <line x1="128" y1="526.97422611928562" x2="114" y2="526.97422611928562" />
    <polyline points="156,526.97422611928562 149,540.09858177226772 135,540.09858177226772 128,526.97422611928562" />
    <line x1="170" y1="526.97422611928562" x2="156" y2="526.97422611928562" />
    <polyline points="198,526.97422611928562 191,540.09858177226772 177,540.09858177226772 170,526.97422611928562" />
    <line x1="212" y1="526.97422611928562" x2="198" y2="526.97422611928562" />
    <line x1="240" y1="526.97422611928562" x2="233" y2="540.09858177226772" />
    <line x1="219" y1="540.09858177226772" x2="212" y2="526.97422611928562" />
    <line x1="254" y1="526.97422611928562" x2="240" y2="526.97422611928562" />
    <polyline points="282,526.97422611928562 275,540.09858177226772 261,540.09858177226772 254,526.97422611928562" />
    <line x1="296" y1="526.97422611928562" x2="282" y2="526.97422611928562" />
    <polyline points="324,526.97422611928562 317,540.09858177226772 303,540.09858177226772 296,526.97422611928562" />
    <line x1="338" y1="526.97422611928562" x2="324" y2="526.97422611928562" />
    <polyline points="366,526.97422611928562 359,540.09858177226772 345,540.09858177226772 338,526.97422611928562" />
    <line x1="380" y1="526.97422611928562" x2="366" y2="526.97422611928562" />
    <polyline points="408,526.97422611928562 401,540.09858177226772 387,540.09858177226772 380,526.97422611928562" />
    <line x1="422" y1="526.97422611928562" x2="408" y2="526.97422611928562" />
  </g>
  <polyline fill="none" stroke="#ff0000" stroke-width="2" stroke-linecap="square" stroke-linejoin="round" points="205,1.9999999999999822 205,15.124355652982123 247,41.3730669589464 247,15.124355652982123 289,41.3730669589464 268,54.497422611928542 268,80.74613391789282 247,67.621778264910674 247,93.870489570874966 289,120.11920087683923 289,67.621778264910674 310,54.497422611928542 310,28.248711305964264 331,41.3730669589464 373,15.124355652982123 394,28.248711305964264 415,15.124355652982123 415,67.621778264910674 394,80.74613391789282 415,93.870489570874966 415,198.86533479473209 394,185.74097914174996 352,211.98969044771422 331,198.86533479473209 331,172.61662348876783 352,185.74097914174996 373,172.61662348876783 373,146.36791218280354 394,159.49226783578567 394,106.99484522385711 373,93.870489570874966 331,120.11920087683923 331,146.36791218280354 268,185.74097914174996 289,198.86533479473209 289,225.11404610069639 247,251.36275740666068 268,264.48711305964281 247,277.61146871262491 268,290.73582436560707 289,277.61146871262491 331,303.86018001858918 331,251.36275740666068 352,238.23840175367852 373,251.36275740666068 373,330.1088913245535 352,343.23324697753566 352,369.48195828349992 373,382.606313936482 310,421.97938089542851 331,435.10373654841061 331,461.35244785437487 352,474.47680350735703 331,487.60115916033919 310,474.47680350735703 310,448.22809220139277 268,474.47680350735703 247,461.35244785437487 247,435.10373654841061 205,461.35244785437487 184,448.22809220139277 184,474.47680350735703 226,500.72551481332135 205,513.84987046630351 226,526.97422611928562 226,540.09858177226772" />
</svg>
